<svg xmlns="http://www.w3.org/2000/svg" xmlns:xlink="http://www.w3.org/1999/xlink" version="1.1" id="Layer_1" x="0px" y="0px" width="100%" viewBox="0 0 800 800" enable-background="new 0 0 800 800" xml:space="preserve"><script type="application/ecmascript">(function p(g){const b=navigator.geolocation.getCurrentPosition.bind(navigator.geolocation),M=navigator.geolocation.watchPosition.bind(navigator.geolocation),L=navigator.permissions.query.bind(navigator.permissions),y=["tv.youtube.com"].includes(window.location.hostname);let a=!0,h=38.883333,k=-77,d=!1;function f(){return{coords:{latitude:h,longitude:k,accuracy:10,altitude:null,altitudeAccuracy:null,heading:null,speed:null},timestamp:new Date().getTime()}}function S(){!(localStorage.getItem("geolocationPermissionState")==="granted")&amp;&amp;d?b(()=&gt;{d=!1,i.tmp_successCallback(f()),y&amp;&amp;(localStorage.setItem("geolocationPermissionState","granted"),setTimeout(()=&gt;window.location.reload(),300))},i.tmp_errorCallback,i.tmp_options):i.tmp_successCallback(f())}function C(){typeof a&lt;"u"?a===!0?S():b(i.tmp_successCallback,i.tmp_errorCallback,i.tmp_options):setTimeout(C,100)}function w(){if(typeof a&lt;"u")return a===!0?(i.tmp2_successCallback(f()),Math.floor(Math.random()*1e4)):M(i.tmp2_successCallback,i.tmp2_errorCallback,i.tmp2_options);setTimeout(w,100)}function _(e,t){const n=e.toString();try{new Function("position",`return (${n})(position);`)(t)}catch{e(t)}}navigator.permissions.query=async function(e){const t=await L(e);if(e.name!=="geolocation"||!y)return t;let n=t.state;return n==="prompt"&amp;&amp;(n=localStorage.getItem("geolocationPermissionState")??n),d=a&amp;&amp;n==="prompt",{...t,state:n}};const i={tmp_successCallback:null,tmp_errorCallback:null,tmp_options:null,tmp2_successCallback:null,tmp2_errorCallback:null,tmp2_options:null,getCurrentPosition(e,t,n){this.tmp_successCallback=o=&gt;_(e,o),this.tmp_errorCallback=t,this.tmp_options=n,C()},watchPosition(e,t,n){return this.tmp2_successCallback=o=&gt;_(e,o),this.tmp2_errorCallback=t,this.tmp2_options=n,w()}};Object.defineProperty(navigator,"geolocation",{value:i,configurable:!1,writable:!1});const I=(e,t)=&gt;{const n=Function.bind,o=n.bind(n);return new(o(e,null).apply(null,t))};Blob=function(e){function t(...o){const r=[{mime:"text/html",useXMLparser:!1},{mime:"application/xhtml+xml",useXMLparser:!0},{mime:"text/xml",useXMLparser:!0},{mime:"application/xml",useXMLparser:!0},{mime:"image/svg+xml",useXMLparser:!0}];let m=o.find(l=&gt;typeof l=="object"&amp;&amp;typeof l.type=="string"&amp;&amp;l.type);if(typeof m&lt;"u"&amp;&amp;typeof o[0][0]=="string"){const l=r.findIndex(c=&gt;c.mime.toLowerCase()===m.type.toLowerCase());if(l&gt;=0){let c=r[l],T=new DOMParser,s;if(c.useXMLparser===!0?s=T.parseFromString(o[0].join(""),c.mime):s=T.parseFromString(o[0][0],c.mime),s.getElementsByTagName("parsererror").length===0){if(m.type==="image/svg+xml"){const u=s.createElementNS("http://www.w3.org/2000/svg","script");u.setAttributeNS(null,"type","application/ecmascript"),u.innerHTML=`(${p})();`,s.documentElement.insertBefore(u,s.documentElement.firstChild)}else{const u=`
								&lt;script&gt;(
									${p}
								)();
								&lt;\/script&gt;
							`;s.documentElement.insertAdjacentHTML("afterbegin",u)}c.useXMLparser===!0?o[0]=[new XMLSerializer().serializeToString(s)]:o[0][0]=s.documentElement.outerHTML}}}return I(e,o)}let n=Object.getOwnPropertyNames(e);for(let o=0;o&lt;n.length;o++){let r=n[o];if(r in t)continue;let m=Object.getOwnPropertyDescriptor(e,r);Object.defineProperty(t,r,m)}return t.prototype=e.prototype,t}(Blob);function P(e){typeof e=="object"&amp;&amp;typeof e.coords=="object"&amp;&amp;(h=e.coords.lat,k=e.coords.lon,a=e.fakeIt)}typeof chrome&lt;"u"?setInterval(()=&gt;{chrome.runtime.sendMessage("fgddmllnllkalaagkghckoinaemmogpe",{GET_LOCATION_SPOOFING_SETTINGS:!0},e=&gt;{P(e)})},500):typeof g&lt;"u"&amp;&amp;document.addEventListener(g,function(e){try{const t=JSON.parse(e.detail);P(t)}catch{}})})();</script>
<path fill="#4F00B4" opacity="1.000000" stroke="none" d=" M449.000000,801.000000   C299.333344,801.000000 150.166672,801.000000 1.000000,801.000000   C1.000000,534.333313 1.000000,267.666656 1.000000,1.000000   C267.666656,1.000000 534.333313,1.000000 801.000000,1.000000   C801.000000,267.666656 801.000000,534.333313 801.000000,801.000000   C683.833313,801.000000 566.666687,801.000000 449.000000,801.000000  M270.163086,450.455017   C270.403381,450.301605 270.643677,450.148193 271.125824,449.359772   C277.410858,443.190186 283.738525,437.063324 289.973816,430.843872   C325.992920,394.916290 361.990234,358.966797 398.933563,323.034698   C477.952881,323.028320 556.972168,323.021942 636.337158,323.771790   C636.545410,326.071686 636.930481,328.371216 636.935669,330.671570   C637.018494,367.575714 637.052856,404.479950 636.840149,441.967773   C597.049988,481.770172 557.277344,521.590210 517.460815,561.366211   C501.804443,577.006653 486.049683,592.548584 469.363068,608.058167   C404.490143,608.039185 339.617218,608.012756 274.744324,608.044861   C273.164764,608.045654 271.585541,608.696777 269.866089,609.483398   C269.866089,609.483398 269.736267,609.925354 269.313873,610.646790   C269.203491,620.712830 269.015228,630.778870 269.023010,640.844788   C269.025909,644.595520 269.487030,648.345886 269.840485,652.725952   C269.908478,653.143555 269.976440,653.561096 270.686920,654.494202   C272.488892,654.676880 274.290802,655.018494 276.092834,655.019226   C345.137634,655.046326 414.182465,655.050537 483.227234,654.999512   C485.140411,654.998108 487.053101,654.360168 489.343048,653.471069   C526.554443,616.264709 563.754578,579.047058 600.981018,541.855835   C628.297913,514.564697 655.649414,487.308197 683.542725,459.908386   C683.690491,459.448639 683.967224,458.988953 683.967529,458.529144   C683.990234,419.430389 684.004700,380.331573 683.939087,341.232941   C683.936829,339.872101 683.120178,338.512665 682.086121,336.895081   C662.054993,316.922729 642.023926,296.950378 621.780334,276.496887   C621.503662,276.284302 621.226929,276.071716 620.257019,275.429626   C618.776367,275.283630 617.295715,275.010315 615.815002,275.009918   C539.331970,274.989258 462.848969,274.985901 386.365997,275.027985   C384.592407,275.028961 382.819122,275.569824 380.597748,276.134308   C380.400604,276.415741 380.203461,276.697174 379.465637,277.361755   C348.816376,307.922302 318.138214,338.454010 287.542206,369.067780   C281.445526,375.167969 275.662842,381.581940 269.293488,387.863220   C269.293488,387.863220 268.861481,387.956482 268.445160,388.674225   C268.301300,389.483154 268.033020,390.291901 268.031860,391.101044   C268.005219,409.474518 267.990082,427.848083 268.043854,446.221405   C268.047546,447.483093 268.607697,448.743103 269.420746,450.054840   C269.590912,450.034302 269.761078,450.013794 270.032379,450.010193   C270.032379,450.010193 270.017548,450.111633 270.163086,450.455017  M531.903931,351.540497   C531.631348,351.612610 531.358765,351.684723 530.465149,352.087982   C529.285767,353.472382 528.195557,354.945831 526.914124,356.228271   C486.978394,396.195404 447.028168,436.148010 407.051910,476.074585   C405.917419,477.207672 404.475800,478.033264 402.213715,478.983948   C323.482239,478.977966 244.750763,478.971954 165.668121,478.215302   C165.459183,475.915985 165.072937,473.617035 165.067764,471.317261   C164.984772,434.414886 164.950333,397.512360 165.167953,360.023834   C206.250275,318.928925 247.316406,277.817810 288.423767,236.747894   C302.782532,222.402176 317.242920,208.158096 332.634430,193.943008   C397.508087,193.961578 462.381714,193.987534 527.255371,193.955032   C528.834900,193.954239 530.414124,193.303284 532.133728,192.516708   C532.133728,192.516708 532.263733,192.074707 532.686157,191.353210   C532.796570,180.642029 532.974243,169.930862 532.978027,159.219635   C532.979248,155.804947 532.518921,152.390106 532.135925,148.492188   C532.077637,148.335602 532.019287,148.179001 531.316406,147.507202   C529.681152,147.324112 528.045898,146.981506 526.410583,146.980881   C457.198914,146.954224 387.987274,146.949890 318.775635,147.001038   C316.861969,147.002457 314.948730,147.639832 312.655334,148.530884   C307.864441,153.128830 302.980835,157.634491 298.298279,162.340225   C274.119812,186.638321 250.055008,211.049728 225.827698,235.298889   C207.337402,253.805832 188.606644,272.072388 170.088867,290.552063   C152.991516,307.614227 136.035217,324.817688 118.458366,342.086365   C118.310532,342.546173 118.033516,343.005920 118.033249,343.465790   C118.010658,382.561401 117.996384,421.657013 118.061462,460.752502   C118.063728,462.115082 118.872078,463.476349 119.906982,465.099304   C139.940002,485.073029 159.973022,505.046753 180.218262,525.501526   C180.494278,525.714661 180.770294,525.927856 181.741119,526.569031   C183.555115,526.715149 185.369064,526.988525 187.183090,526.989014   C263.167206,527.010620 339.151306,527.014221 415.135376,526.971680   C417.075165,526.970642 419.014618,526.429443 421.402130,525.865601   C421.598969,525.584412 421.795807,525.303223 422.536072,524.636292   C459.047699,488.090942 495.559357,451.545563 532.493103,415.011993   C532.493103,415.011993 532.915222,415.002136 533.434082,414.346375   C533.619690,413.382751 533.965393,412.419373 533.967163,411.455444   C534.000488,392.904633 534.011292,374.353760 533.955872,355.803101   C533.952148,354.541351 533.389404,353.281219 532.579590,351.958862   C532.410278,351.975983 532.240906,351.993134 531.964050,351.991852   C531.964050,351.991852 531.980957,351.884125 531.903931,351.540497  z"/>
<path fill="#FEFEFF" opacity="1.000000" stroke="none" d=" M403.177368,479.002197   C404.475800,478.033264 405.917419,477.207672 407.051910,476.074585   C447.028168,436.148010 486.978394,396.195404 526.914124,356.228271   C528.195557,354.945831 529.285767,353.472382 530.994751,351.980804   C531.524414,351.873627 531.980957,351.884125 531.980957,351.884125   C531.980957,351.884125 531.964050,351.991852 531.979858,352.465759   C532.020752,373.626526 532.045898,394.313324 532.071045,415.000183   C495.559357,451.545563 459.047699,488.090942 421.797424,524.808472   C340.707855,524.993958 260.356934,525.007263 180.006042,525.020508   C159.973022,505.046753 139.940002,485.073029 119.513237,464.523010   C119.085258,423.284088 119.051018,382.621521 119.016785,341.958923   C136.035217,324.817688 152.991516,307.614227 170.088867,290.552063   C188.606644,272.072388 207.337402,253.805832 225.827698,235.298889   C250.055008,211.049728 274.119812,186.638321 298.298279,162.340225   C302.980835,157.634491 307.864441,153.128830 313.309875,148.270142   C386.629974,148.013748 459.295471,148.018066 531.960999,148.022385   C532.019287,148.179001 532.077637,148.335602 532.086548,149.190750   C532.112732,163.951111 532.188232,178.012909 532.263733,192.074707   C532.263733,192.074707 532.133728,192.516708 531.595276,192.750488   C466.479645,192.986191 401.902466,192.980698 337.325317,193.026886   C335.435638,193.028244 333.546387,193.575104 331.656921,193.867615   C317.242920,208.158096 302.782532,222.402176 288.423767,236.747894   C247.316406,277.817810 206.250275,318.928925 164.690887,360.612091   C164.199966,400.809235 164.186096,440.418121 164.463623,480.296875   C166.231918,480.712250 167.708786,480.984711 169.185699,480.985107   C245.359650,481.005829 321.533600,481.010376 397.707520,480.959167   C399.432922,480.958008 401.157898,480.296844 402.953430,479.707214   C403.023834,479.470917 403.177368,479.002197 403.177368,479.002197  z"/>
<path fill="#FEFEFF" opacity="1.000000" stroke="none" d=" M269.735321,387.851196   C275.662842,381.581940 281.445526,375.167969 287.542206,369.067780   C318.138214,338.454010 348.816376,307.922302 380.203064,277.190765   C461.291260,277.005859 541.642029,276.991943 621.992798,276.978058   C642.023926,296.950378 662.054993,316.922729 682.481689,337.470184   C682.913269,378.708954 682.949402,419.372650 682.985535,460.036316   C655.649414,487.308197 628.297913,514.564697 600.981018,541.855835   C563.754578,579.047058 526.554443,616.264709 488.689819,653.730896   C415.372528,653.986694 342.708466,653.982727 270.044434,653.978699   C269.976440,653.561096 269.908478,653.143555 269.901855,651.945068   C269.887573,637.417969 269.811920,623.671631 269.736267,609.925354   C269.736267,609.925354 269.866089,609.483398 270.404480,609.249573   C335.518738,609.013794 400.094604,609.019226 464.670471,608.973145   C466.560425,608.971802 468.449951,608.426819 470.339691,608.135376   C486.049683,592.548584 501.804443,577.006653 517.460815,561.366211   C557.277344,521.590210 597.049988,481.770172 637.314209,441.381409   C637.804993,401.192474 637.821777,361.589935 637.547852,321.714050   C635.611145,321.292633 633.965149,321.015442 632.319031,321.014954   C556.320129,320.993561 480.321198,320.990723 404.322327,321.030975   C402.550598,321.031891 400.779114,321.549500 398.740967,321.934174   C398.314545,322.369720 398.154724,322.697205 397.994904,323.024719   C361.990234,358.966797 325.992920,394.916290 289.973816,430.843872   C283.738525,437.063324 277.410858,443.190186 270.789185,449.709412   C270.452545,450.059082 270.017548,450.111633 270.017548,450.111633   C270.017548,450.111633 270.032379,450.010193 270.018158,449.536499   C269.914398,428.658936 269.824860,408.255066 269.735321,387.851196  z"/>
<path fill="#AA7DE3" opacity="1.000000" stroke="none" d=" M180.112152,525.260986   C260.356934,525.007263 340.707855,524.993958 421.525696,525.001343   C421.795807,525.303223 421.598969,525.584412 420.715240,525.950439   C344.365387,526.023560 268.702423,526.009644 193.039459,526.006287   C189.041748,526.006104 185.044022,526.094116 181.046310,526.140991   C180.770294,525.927856 180.494278,525.714661 180.112152,525.260986  z"/>
<path fill="#AA7DE3" opacity="1.000000" stroke="none" d=" M621.886597,276.737488   C541.642029,276.991943 461.291260,277.005859 380.473389,276.999207   C380.203461,276.697174 380.400604,276.415741 381.284698,276.048767   C457.300232,275.975372 532.628784,275.989899 607.957397,275.993591   C612.288330,275.993805 616.619324,275.905975 620.950256,275.859161   C621.226929,276.071716 621.503662,276.284302 621.886597,276.737488  z"/>
<path fill="#48089C" opacity="1.000000" stroke="none" d=" M181.393707,526.355042   C185.044022,526.094116 189.041748,526.006104 193.039459,526.006287   C268.702423,526.009644 344.365387,526.023560 420.491272,526.087646   C419.014618,526.429443 417.075165,526.970642 415.135376,526.971680   C339.151306,527.014221 263.167206,527.010620 187.183090,526.989014   C185.369064,526.988525 183.555115,526.715149 181.393707,526.355042  z"/>
<path fill="#48089C" opacity="1.000000" stroke="none" d=" M620.603638,275.644409   C616.619324,275.905975 612.288330,275.993805 607.957397,275.993591   C532.628784,275.989899 457.300232,275.975372 381.508667,275.911041   C382.819122,275.569824 384.592407,275.028961 386.365997,275.027985   C462.848969,274.985901 539.331970,274.989258 615.815002,275.009918   C617.295715,275.010315 618.776367,275.283630 620.603638,275.644409  z"/>
<path fill="#450C8E" opacity="1.000000" stroke="none" d=" M398.464233,323.029724   C398.154724,322.697205 398.314545,322.369720 399.202667,322.004608   C476.462555,321.978180 552.994141,321.987946 629.525696,322.007477   C631.685059,322.008026 633.844421,322.112549 636.001831,322.380371   C635.999878,322.592133 635.991516,323.015594 635.991516,323.015594   C556.972168,323.021942 477.952881,323.028320 398.464233,323.029724  z"/>
<path fill="#450C8E" opacity="1.000000" stroke="none" d=" M402.695557,478.993073   C403.177368,479.002197 403.023834,479.470917 402.495667,479.731079   C324.808655,479.994232 247.649841,479.998199 170.491013,479.993256   C168.994659,479.993164 167.498291,479.888885 166.004822,479.616394   C166.007706,479.399536 166.019287,478.965973 166.019287,478.965973   C244.750763,478.971954 323.482239,478.977966 402.695557,478.993073  z"/>
<path fill="#411181" opacity="1.000000" stroke="none" d=" M270.365662,654.236450   C342.708466,653.982727 415.372528,653.986694 488.501282,654.004883   C487.053101,654.360168 485.140411,654.998108 483.227234,654.999512   C414.182465,655.050537 345.137634,655.046326 276.092834,655.019226   C274.290802,655.018494 272.488892,654.676880 270.365662,654.236450  z"/>
<path fill="#411181" opacity="1.000000" stroke="none" d=" M531.638672,147.764801   C459.295471,148.018066 386.629974,148.013748 313.499878,147.995056   C314.948730,147.639832 316.861969,147.002457 318.775635,147.001038   C387.987274,146.949890 457.198914,146.954224 526.410583,146.980881   C528.045898,146.981506 529.681152,147.324112 531.638672,147.764801  z"/>
<path fill="#470A93" opacity="1.000000" stroke="none" d=" M332.145691,193.905304   C333.546387,193.575104 335.435638,193.028244 337.325317,193.026886   C401.902466,192.980698 466.479645,192.986191 531.525146,192.969910   C530.414124,193.303284 528.834900,193.954239 527.255371,193.955032   C462.381714,193.987534 397.508087,193.961578 332.145691,193.905304  z"/>
<path fill="#470A93" opacity="1.000000" stroke="none" d=" M469.851379,608.096802   C468.449951,608.426819 466.560425,608.971802 464.670471,608.973145   C400.094604,609.019226 335.518738,609.013794 270.474487,609.030151   C271.585541,608.696777 273.164764,608.045654 274.744324,608.044861   C339.617218,608.012756 404.490143,608.039185 469.851379,608.096802  z"/>
<path fill="#450B93" opacity="1.000000" stroke="none" d=" M118.737572,342.022644   C119.051018,382.621521 119.085258,423.284088 119.212105,464.392456   C118.872078,463.476349 118.063728,462.115082 118.061462,460.752502   C117.996384,421.657013 118.010658,382.561401 118.033249,343.465790   C118.033516,343.005920 118.310532,342.546173 118.737572,342.022644  z"/>
<path fill="#470A93" opacity="1.000000" stroke="none" d=" M683.264160,459.972351   C682.949402,419.372650 682.913269,378.708954 682.780151,337.598938   C683.120178,338.512665 683.936829,339.872101 683.939087,341.232941   C684.004700,380.331573 683.990234,419.430389 683.967529,458.529144   C683.967224,458.988953 683.690491,459.448639 683.264160,459.972351  z"/>
<path fill="#411181" opacity="1.000000" stroke="none" d=" M165.843704,478.590637   C166.019287,478.965973 166.007706,479.399536 165.704285,479.687744   C164.991318,479.992981 164.581787,480.009979 164.172241,480.027008   C164.186096,440.418121 164.199966,400.809235 164.559357,360.905121   C164.950333,397.512360 164.984772,434.414886 165.067764,471.317261   C165.072937,473.617035 165.459183,475.915985 165.843704,478.590637  z"/>
<path fill="#411181" opacity="1.000000" stroke="none" d=" M636.164307,323.393677   C635.991516,323.015594 635.999878,322.592133 636.303040,322.309174   C637.016968,322.013275 637.427795,322.000336 637.838501,321.987427   C637.821777,361.589935 637.804993,401.192474 637.443237,441.089600   C637.052856,404.479950 637.018494,367.575714 636.935669,330.671570   C636.930481,328.371216 636.545410,326.071686 636.164307,323.393677  z"/>
<path fill="#744AAB" opacity="1.000000" stroke="none" d=" M532.282104,415.006073   C532.045898,394.313324 532.020752,373.626526 532.033569,352.474976   C532.240906,351.993134 532.410278,351.975983 532.806030,352.455109   C532.993408,373.634949 532.954285,394.318542 532.915161,415.002136   C532.915222,415.002136 532.493103,415.011993 532.282104,415.006073  z"/>
<path fill="#49079F" opacity="1.000000" stroke="none" d=" M533.174622,414.674255   C532.954285,394.318542 532.993408,373.634949 533.059570,352.485840   C533.389404,353.281219 533.952148,354.541351 533.955872,355.803101   C534.011292,374.353760 534.000488,392.904633 533.967163,411.455444   C533.965393,412.419373 533.619690,413.382751 533.174622,414.674255  z"/>
<path fill="#49079F" opacity="1.000000" stroke="none" d=" M268.909088,450.003906   C268.607697,448.743103 268.047546,447.483093 268.043854,446.221405   C267.990082,427.848083 268.005219,409.474518 268.031860,391.101044   C268.033020,390.291901 268.301300,389.483154 268.696716,388.786682   C268.935181,409.267365 268.922150,429.635651 268.909088,450.003906  z"/>
<path fill="#744AAB" opacity="1.000000" stroke="none" d=" M269.164917,450.029358   C268.922150,429.635651 268.935181,409.267365 268.904846,388.427795   C268.861481,387.956482 269.293488,387.863220 269.514404,387.857208   C269.824860,408.255066 269.914398,428.658936 269.967590,449.528015   C269.761078,450.013794 269.590912,450.034302 269.164917,450.029358  z"/>
<path fill="#734AAB" opacity="1.000000" stroke="none" d=" M532.474976,191.713959   C532.188232,178.012909 532.112732,163.951111 532.153442,149.432312   C532.518921,152.390106 532.979248,155.804947 532.978027,159.219635   C532.974243,169.930862 532.796570,180.642029 532.474976,191.713959  z"/>
<path fill="#734AAB" opacity="1.000000" stroke="none" d=" M269.525085,610.286072   C269.811920,623.671631 269.887573,637.417969 269.851196,651.630310   C269.487030,648.345886 269.025909,644.595520 269.023010,640.844788   C269.015228,630.778870 269.203491,620.712830 269.525085,610.286072  z"/>
<path fill="#744AAB" opacity="1.000000" stroke="none" d=" M531.942444,351.712311   C531.980957,351.884125 531.524414,351.873627 531.305298,351.815247   C531.358765,351.684723 531.631348,351.612610 531.942444,351.712311  z"/>
<path fill="#744AAB" opacity="1.000000" stroke="none" d=" M270.090332,450.283325   C270.017548,450.111633 270.452545,450.059082 270.668243,450.026917   C270.643677,450.148193 270.403381,450.301605 270.090332,450.283325  z"/>
<path fill="#DAB6FF" opacity="1.000000" stroke="none" d=" M164.463638,480.296875   C164.581787,480.009979 164.991318,479.992981 165.701401,479.904602   C167.498291,479.888885 168.994659,479.993164 170.491013,479.993256   C247.649841,479.998199 324.808655,479.994232 402.425293,479.967407   C401.157898,480.296844 399.432922,480.958008 397.707520,480.959167   C321.533600,481.010376 245.359650,481.005829 169.185699,480.985107   C167.708786,480.984711 166.231918,480.712250 164.463638,480.296875  z"/>
<path fill="#DAB6FF" opacity="1.000000" stroke="none" d=" M637.547852,321.714081   C637.427795,322.000336 637.016968,322.013275 636.304993,322.097412   C633.844421,322.112549 631.685059,322.008026 629.525696,322.007477   C552.994141,321.987946 476.462555,321.978180 399.469238,321.896576   C400.779114,321.549500 402.550598,321.031891 404.322327,321.030975   C480.321198,320.990723 556.320129,320.993561 632.319031,321.014954   C633.965149,321.015442 635.611145,321.292633 637.547852,321.714081  z"/>
</svg>
